<svg width="110" height="40" viewBox="0 0 110 40" fill="none" xmlns="http://www.w3.org/2000/svg">
<g clip-path="url(#clip0_20_4504)">
<path d="M1.41052 0.311607L2.85908 1.51996V6.96616H10.6895L11.7544 8.30953L10.6861 9.58711H2.85908V14.7944L1.41052 15.9993L0 14.7944V1.51649L1.41052 0.311607ZM5.64555 14.0362H11.6161L12.6152 15.3103L11.5504 16.6572H5.64555L4.681 15.4142L5.64555 14.0362ZM5.85298 0H11.5469L12.6118 1.34338L11.5469 2.62096H5.92212L4.78472 1.38146L5.85298 0ZM37.5863 2.58634L38.8619 3.96434L37.5863 5.3458H18.3057L17.0646 3.96434L18.3057 2.58634H37.5863ZM16.0309 8.30953L17.234 7.2743L18.4405 8.30953V9.82951C18.4405 12.3812 19.1285 14.4828 22.195 14.4828H22.8138C25.5691 14.4828 27.0834 12.6201 27.0834 9.72213V8.27491L28.2554 7.23968L29.4619 8.24028V9.82605C29.4619 12.4124 30.219 14.3444 33.1819 14.3444H33.697C36.5906 14.3444 37.1058 12.1354 37.1403 9.72213V8.17104L38.3123 7.20506L39.55 8.20566V9.7568C39.5154 13.1013 38.6199 16.9307 33.8007 16.9307H33.2856C30.4265 16.9307 28.8777 15.6531 28.2588 14.0674C27.5363 15.6877 25.6072 17.1038 22.9901 17.1038H22.3679C17.4103 17.1038 16.0689 14.1054 16.0344 9.89529V8.30953H16.0309ZM25.8803 33.2762L25.1923 31.4135L26.9832 30.8976L33.2856 33.7575V27.8612L34.5613 26.7913L35.8681 27.8612V35.0004L38.2086 36.0703L38.8619 37.7945L37.0366 38.4489L25.8803 33.2762ZM37.1058 20.6873L38.8274 21.4802L38.2777 23.239L22.7792 30.4475L20.9193 29.7239L21.6764 27.9304L37.1058 20.6873ZM14.7448 30.5167L16.2591 31.7597C16.1208 36.1396 12.3663 38.4489 7.92727 38.4489H7.47784C5.27218 38.4489 2.69313 37.6214 1.04061 36.0356L1.21001 34.2768L2.82796 34.0691C4.03451 35.1043 5.72161 35.8279 7.30499 35.8279H7.78898C10.7864 35.8279 13.0923 34.5884 13.3343 31.6558L14.7448 30.5167ZM13.3308 27.6534C13.1925 24.617 10.9211 23.4121 7.78553 23.4121H7.30153C5.44158 23.4121 4.03105 24.1357 2.8245 25.1709L1.21001 24.9632L1.03715 23.2044C2.68967 21.584 4.9956 20.8258 7.4087 20.8258H7.88924C12.3663 20.8258 16.1208 23.104 16.2556 27.5495L14.7413 28.7579L13.3308 27.6534Z" fill="#DA3369"/>
<path d="M53.9943 5.23442H50.4057C50.4853 5.93381 50.9727 6.44969 51.6883 6.44969C52.1239 6.44969 52.525 6.27658 52.76 5.92342L53.9009 5.95458C53.4964 6.85478 52.6598 7.32912 51.6883 7.32912C50.3331 7.32912 49.334 6.31812 49.334 4.92282C49.334 3.52751 50.3124 2.52344 51.6572 2.52344C52.881 2.52344 53.9908 3.34401 53.9908 5.22403V5.23442H53.9943ZM50.4057 4.49695H52.8603C52.8085 3.91182 52.3348 3.40286 51.6676 3.40286C50.9934 3.40286 50.5267 3.8495 50.4057 4.49695Z" fill="#DA3369"/>
<path d="M57.6998 3.8772C57.3576 3.54482 56.8528 3.38209 56.5071 3.38209C56.113 3.38209 55.9125 3.59329 55.9125 3.80795C55.9125 4.0607 56.0231 4.18188 56.3377 4.29267L57.126 4.56619C57.973 4.8605 58.329 5.32444 58.329 5.89226C58.329 6.61934 57.7724 7.32912 56.6316 7.32912C55.8848 7.32912 55.145 7.02443 54.7129 6.61242L55.3075 5.8334C55.6498 6.17617 56.1856 6.42891 56.6108 6.42891C57.0153 6.42891 57.278 6.2558 57.278 5.98228C57.278 5.68798 57.1363 5.56681 56.6316 5.39715L55.8745 5.13402C55.2383 4.91242 54.8857 4.43463 54.8857 3.87027C54.8857 3.20205 55.463 2.52344 56.552 2.52344C57.0879 2.52344 57.8035 2.73464 58.2806 3.18128L57.6998 3.8772Z" fill="#DA3369"/>
<path d="M61.5928 6.44774C62.1183 6.44774 62.5228 6.195 62.7544 5.77951L63.6222 6.22615C63.2592 6.90476 62.4605 7.32716 61.5928 7.32716C60.2376 7.32716 59.1797 6.32656 59.1797 4.92779C59.1797 3.52209 60.241 2.52148 61.5928 2.52148C62.4605 2.52148 63.2592 2.94735 63.6222 3.6225L62.7544 4.06914C62.5228 3.65366 62.1183 3.40092 61.5928 3.40092C60.7631 3.40092 60.1996 4.05875 60.1996 4.92779C60.1996 5.79683 60.7631 6.44774 61.5928 6.44774Z" fill="#DA3369"/>
<path d="M66.7858 2.52344C68.1306 2.52344 69.2196 3.52404 69.2196 4.92282C69.2196 6.31812 68.1271 7.32912 66.7858 7.32912C65.4409 7.32912 64.3623 6.31812 64.3623 4.92282C64.3623 3.52404 65.4409 2.52344 66.7858 2.52344ZM66.7858 3.40286C65.9561 3.40286 65.3822 4.05032 65.3822 4.91935C65.3822 5.78839 65.9595 6.44623 66.7858 6.44623C67.6155 6.44623 68.1894 5.78839 68.1894 4.91935C68.1894 4.05032 67.6155 3.40286 66.7858 3.40286Z" fill="#DA3369"/>
<path d="M71.4107 0.125H70.4121V7.20541H71.4107V0.125Z" fill="#DA3369"/>
<path d="M75.5046 4.14034C75.5046 3.65561 75.1416 3.40286 74.5539 3.40286C74.0596 3.40286 73.6136 3.61406 73.2714 3.88759L72.7977 3.13973C73.1814 2.80735 73.8279 2.52344 74.6266 2.52344C75.8297 2.52344 76.5142 3.19166 76.5142 4.16111V7.20794H75.5046V6.7336C75.2419 7.15946 74.6749 7.32912 74.2013 7.32912C73.1607 7.32912 72.5557 6.7336 72.5557 5.89226C72.5557 5.00245 73.1814 4.49695 74.2013 4.49695H75.1797C75.4113 4.49695 75.5046 4.39654 75.5046 4.21304V4.14034ZM75.5046 5.53911V5.1444C75.4148 5.21365 75.2523 5.24481 75.0206 5.24481H74.4156C73.8798 5.24481 73.6067 5.47678 73.6067 5.8611C73.6067 6.21426 73.8695 6.53971 74.4156 6.53971C74.9792 6.53971 75.5046 6.24541 75.5046 5.53911Z" fill="#DA3369"/>
<path d="M50.6407 17.5511H49.6416V10.4707H50.6407V13.6664C50.8827 13.2094 51.5188 12.8666 52.1861 12.8666C53.5101 12.8666 54.4678 13.8672 54.4678 15.2625C54.4678 16.6578 53.4894 17.6723 52.1653 17.6723C51.5084 17.6723 50.893 17.3503 50.6407 16.8933V17.5511ZM50.6096 15.266C50.6096 16.1351 51.1869 16.8032 52.0235 16.8032C52.8532 16.8032 53.4376 16.1351 53.4376 15.266C53.4376 14.3969 52.8532 13.7391 52.0235 13.7391C51.1835 13.7391 50.6096 14.3969 50.6096 15.266Z" fill="#DA3369"/>
<path d="M58.236 13.8807H57.7105C57.064 13.8807 56.6388 14.2546 56.6388 15.2863V17.5507H55.6396V12.9874H56.618V13.7144C56.7909 13.209 57.2438 12.9043 57.8799 12.9043C57.9905 12.9043 58.1115 12.9147 58.2325 12.9354V13.8807H58.236Z" fill="#DA3369"/>
<path d="M60.4797 17.5505H59.4702V13.8181H58.7822V12.9872H60.4797V17.5505ZM59.9161 10.6328C60.3102 10.6328 60.6318 10.9583 60.6318 11.353C60.6318 11.7477 60.3102 12.0628 59.9161 12.0628C59.5221 12.0628 59.2074 11.7477 59.2074 11.353C59.2074 10.9549 59.5221 10.6328 59.9161 10.6328Z" fill="#DA3369"/>
<path d="M63.2392 11.1484V12.9904H64.3109V13.8213H63.2392V16.38C63.2392 16.6951 63.4708 16.7539 63.7025 16.7539C64.0551 16.7539 64.3178 16.7123 64.3178 16.7123V17.5538C64.3178 17.5538 63.8235 17.6057 63.4501 17.6057C62.9038 17.6057 62.2262 17.4948 62.2262 16.6051V13.8213H61.4795V12.9904H62.2297V11.1484H63.2392Z" fill="#DA3369"/>
<path d="M68.027 14.487C68.027 14.0023 67.664 13.7495 67.0763 13.7495C66.5819 13.7495 66.136 13.9607 65.7937 14.2343L65.3201 13.4863C65.7038 13.154 66.3503 12.8701 67.149 12.8701C68.352 12.8701 69.0365 13.5383 69.0365 14.5078V17.5546H68.027V17.0802C67.7643 17.5061 67.1973 17.6758 66.7237 17.6758C65.6831 17.6758 65.0781 17.0802 65.0781 16.2389C65.0781 15.3491 65.7038 14.8436 66.7237 14.8436H67.7021C67.9337 14.8436 68.027 14.7432 68.027 14.5597V14.487ZM66.6027 10.4707H67.7954L68.7565 12.1499H67.7263L67.2008 11.2082L66.6753 12.1499H65.6554L66.6027 10.4707ZM68.027 15.8823V15.4876C67.9372 15.5568 67.7746 15.588 67.543 15.588H66.938C66.4022 15.588 66.1291 15.8199 66.1291 16.2043C66.1291 16.5575 66.3918 16.8829 66.938 16.8829C67.5016 16.8863 68.027 16.592 68.027 15.8823Z" fill="#DA3369"/>
<path d="M71.4417 13.2515C71.4417 13.3831 71.4417 13.4627 71.4314 13.5562C71.8151 13.1096 72.3406 12.8672 72.9179 12.8672C73.9896 12.8672 74.6154 13.5355 74.6154 14.5776V17.5517H73.606V14.7195C73.606 14.0721 73.2118 13.7674 72.7071 13.7674C72.2715 13.7674 71.8497 13.989 71.4659 14.4356V17.5517H70.4668V12.9883H71.4486V13.2515H71.4417Z" fill="#DA3369"/>
<path d="M77.2541 17.5505H76.2446V13.8181H75.5566V12.9872H77.2541V17.5505ZM76.6871 10.6328C77.0812 10.6328 77.4027 10.9583 77.4027 11.353C77.4027 11.7477 77.0812 12.0628 76.6871 12.0628C76.2929 12.0628 75.9784 11.7477 75.9784 11.353C75.9818 10.9549 76.2929 10.6328 76.6871 10.6328Z" fill="#DA3369"/>
<path d="M80.832 16.7935C81.3575 16.7935 81.7621 16.5407 81.9937 16.1252L82.8614 16.5719C82.4984 17.2505 81.6998 17.6729 80.832 17.6729C79.4768 17.6729 78.4189 16.6723 78.4189 15.2735C78.4189 13.8678 79.4803 12.8672 80.832 12.8672C81.6998 12.8672 82.4984 13.2931 82.8614 13.9683L81.9937 14.4148C81.7621 13.9994 81.3575 13.7467 80.832 13.7467C80.0023 13.7467 79.4388 14.4044 79.4388 15.2735C79.4388 16.1426 80.0023 16.7935 80.832 16.7935Z" fill="#DA3369"/>
<path d="M86.5505 14.486C86.5505 14.0013 86.1875 13.7486 85.5998 13.7486C85.1055 13.7486 84.6594 13.9598 84.3172 14.2333L83.8436 13.4855C84.2273 13.1531 84.8738 12.8691 85.6724 12.8691C86.8755 12.8691 87.5601 13.5374 87.5601 14.5068V17.5537H86.5505V17.0794C86.2878 17.5052 85.7208 17.6748 85.2472 17.6748C84.2066 17.6748 83.6016 17.0794 83.6016 16.238C83.6016 15.3482 84.2273 14.8427 85.2472 14.8427H86.2256C86.4572 14.8427 86.5505 14.7423 86.5505 14.5587V14.486ZM86.5505 15.8814V15.4867C86.4607 15.5559 86.2982 15.5871 86.0665 15.5871H85.4615C84.9256 15.5871 84.6525 15.819 84.6525 16.2034C84.6525 16.5565 84.9153 16.8819 85.4615 16.8819C86.025 16.8854 86.5505 16.5912 86.5505 15.8814Z" fill="#DA3369"/>
<path d="M94.8748 16.8824C94.6326 17.3395 94.017 17.6719 93.3499 17.6719C92.0263 17.6719 91.0576 16.6608 91.0576 15.2621C91.0576 13.8668 92.0086 12.8662 93.3295 12.8662C94.0072 12.8662 94.6326 13.2089 94.8854 13.666C94.8748 13.3544 94.8748 12.9769 94.8748 12.6238V10.4668H95.8843V17.5472H94.8748V16.8824ZM92.0849 15.2656C92.0849 16.1346 92.6624 16.8028 93.4989 16.8028C94.3283 16.8028 94.9129 16.1346 94.9129 15.2656C94.9129 14.3965 94.3248 13.7387 93.4989 13.7387C92.6624 13.7387 92.0849 14.3965 92.0849 15.2656Z" fill="#DA3369"/>
<path d="M101.717 15.5802H98.1312C98.211 16.2795 98.698 16.7955 99.4139 16.7955C99.8495 16.7955 100.254 16.6223 100.486 16.2691L101.626 16.3003C101.222 17.2005 100.385 17.6748 99.4139 17.6748C98.0584 17.6748 97.0596 16.6638 97.0596 15.2685C97.0596 13.8732 98.0416 12.8691 99.3829 12.8691C100.607 12.8691 101.717 13.6898 101.717 15.5698V15.5802ZM98.1276 14.8392H100.582C100.531 14.2541 100.057 13.7451 99.39 13.7451C98.7158 13.7486 98.2492 14.1918 98.1276 14.8392Z" fill="#DA3369"/>
<path d="M52.2234 24.8317C52.2234 24.3469 51.8604 24.0942 51.2727 24.0942C50.7783 24.0942 50.3323 24.3054 49.99 24.5789L49.5164 23.8311C49.9002 23.4988 50.5467 23.2148 51.3453 23.2148C52.5483 23.2148 53.2329 23.883 53.2329 24.8524V27.8993H52.2234V27.4215C51.9606 27.8474 51.3937 28.017 50.92 28.017C49.8794 28.017 49.2744 27.4215 49.2744 26.5802C49.2744 25.6903 49.9002 25.1849 50.92 25.1849H51.8984C52.1301 25.1849 52.2234 25.0844 52.2234 24.901V24.8317ZM52.2234 26.227V25.8323C52.1335 25.9015 51.971 25.9327 51.7394 25.9327H51.1344C50.5985 25.9327 50.3254 26.1647 50.3254 26.549C50.3254 26.9021 50.5881 27.2276 51.1344 27.2276C51.6979 27.2276 52.2234 26.9333 52.2234 26.227Z" fill="#DA3369"/>
<path d="M57.2574 24.2229H56.732C56.0855 24.2229 55.6602 24.5968 55.6602 25.6286V27.8929H54.6611V23.3331H55.6395V24.0602C55.8123 23.5547 56.2652 23.25 56.9013 23.25C57.0119 23.25 57.1329 23.2604 57.2539 23.2812V24.2229H57.2574Z" fill="#DA3369"/>
<path d="M59.5713 21.4922V23.3341H60.643V24.1651H59.5713V26.7237C59.5713 27.0388 59.8029 27.0976 60.0345 27.0976C60.3871 27.0976 60.6499 27.0561 60.6499 27.0561V27.8974C60.6499 27.8974 60.1555 27.9493 59.7821 27.9493C59.2359 27.9493 58.5583 27.8386 58.5583 26.9487V24.1685H57.8115V23.3375H58.5583V21.4957H59.5713V21.4922Z" fill="#DA3369"/>
<path d="M66.1295 25.922H62.5444C62.6239 26.6213 63.1114 27.1372 63.827 27.1372C64.2626 27.1372 64.6671 26.9641 64.8987 26.6109L66.0396 26.642C65.6351 27.5423 64.7985 28.0166 63.827 28.0166C62.4718 28.0166 61.4727 27.0056 61.4727 25.6103C61.4727 24.215 62.4545 23.2109 63.7959 23.2109C65.0197 23.2109 66.1295 24.0315 66.1295 25.9116V25.922ZM62.5444 25.1844H64.999C64.9472 24.5993 64.4734 24.0903 63.8063 24.0903C63.1286 24.0903 62.6654 24.537 62.5444 25.1844Z" fill="#DA3369"/>
<path d="M69.8385 24.5685C69.4963 24.2362 68.9915 24.0734 68.6458 24.0734C68.2517 24.0734 68.0512 24.2846 68.0512 24.4993C68.0512 24.7521 68.1618 24.8732 68.4764 24.984L69.2646 25.2576C70.1116 25.5518 70.4677 26.0158 70.4677 26.5836C70.4677 27.3107 69.9112 28.0204 68.7703 28.0204C68.0235 28.0204 67.2871 27.7158 66.8516 27.3038L67.4462 26.5248C67.7884 26.8676 68.3243 27.1203 68.7495 27.1203C69.154 27.1203 69.4168 26.9472 69.4168 26.6737C69.4168 26.3794 69.275 26.2581 68.7703 26.0885L68.0131 25.8254C67.377 25.6038 67.0244 25.126 67.0244 24.5616C67.0244 23.8934 67.5983 23.2148 68.6908 23.2148C69.2266 23.2148 69.9422 23.426 70.4193 23.8726L69.8385 24.5685Z" fill="#DA3369"/>
<path d="M76.1016 27.1387C76.6271 27.1387 77.0316 26.886 77.2632 26.4705L78.1309 26.9171C77.7679 27.5957 76.9693 28.0181 76.1016 28.0181C74.7463 28.0181 73.6885 27.0175 73.6885 25.6188C73.6885 24.2131 74.7498 23.209 76.1016 23.209C76.9693 23.209 77.7679 23.6349 78.1309 24.3134L77.2632 24.7601C77.0316 24.3446 76.6271 24.0918 76.1016 24.0918C75.2719 24.0918 74.7084 24.7497 74.7084 25.6188C74.7084 26.4877 75.2719 27.1387 76.1016 27.1387Z" fill="#DA3369"/>
<path d="M81.8317 24.2229H81.3062C80.6598 24.2229 80.2345 24.5968 80.2345 25.6286V27.8929H79.2354V23.3331H80.2137V24.0602C80.3866 23.5547 80.8395 23.25 81.4756 23.25C81.5863 23.25 81.7073 23.2604 81.8283 23.2812V24.2229H81.8317Z" fill="#DA3369"/>
<path d="M84.0744 27.8958H83.065V24.1634H82.377V23.3325H84.0744V27.8958ZM83.5075 20.9746C83.9016 20.9746 84.2231 21.3001 84.2231 21.6948C84.2231 22.0895 83.9016 22.4011 83.5075 22.4011C83.1133 22.4011 82.7988 22.0895 82.7988 21.6948C82.8022 21.3001 83.1133 20.9746 83.5075 20.9746Z" fill="#DA3369"/>
<path d="M88.1375 24.8317C88.1375 24.3469 87.7745 24.0942 87.1867 24.0942C86.6923 24.0942 86.2463 24.3054 85.9041 24.5789L85.4305 23.8311C85.8142 23.4988 86.4607 23.2148 87.2593 23.2148C88.4624 23.2148 89.1473 23.883 89.1473 24.8524V27.8993H88.1375V27.4215C87.8747 27.8474 87.3077 28.017 86.834 28.017C85.7935 28.017 85.1885 27.4215 85.1885 26.5802C85.1885 25.6903 85.8142 25.1849 86.834 25.1849H87.8124C88.044 25.1849 88.1375 25.0844 88.1375 24.901V24.8317ZM88.1375 26.227V25.8323C88.0475 25.9015 87.8851 25.9327 87.6535 25.9327H87.0485C86.5126 25.9327 86.2394 26.1647 86.2394 26.549C86.2394 26.9021 86.5022 27.2276 87.0485 27.2276C87.6119 27.2276 88.1375 26.9333 88.1375 26.227Z" fill="#DA3369"/>
<path d="M91.8538 21.4922V23.3341H92.9255V24.1651H91.8538V26.7237C91.8538 27.0388 92.0854 27.0976 92.3169 27.0976C92.67 27.0976 92.9326 27.0561 92.9326 27.0561V27.8974C92.9326 27.8974 92.4384 27.9493 92.065 27.9493C91.5185 27.9493 90.8408 27.8386 90.8408 26.9487V24.1685H90.0947V23.3375H90.8408V21.4957H91.8538V21.4922Z" fill="#DA3369"/>
<path d="M95.2692 27.8958H94.2597V24.1634H93.5713V23.3325H95.2692V27.8958ZM94.7023 20.9746C95.0962 20.9746 95.4182 21.3001 95.4182 21.6948C95.4182 22.0895 95.0962 22.4011 94.7023 22.4011C94.3085 22.4011 93.9935 22.0895 93.9935 21.6948C93.9971 21.3001 94.3085 20.9746 94.7023 20.9746Z" fill="#DA3369"/>
<path d="M98.5743 26.9328L99.795 23.332H100.867L99.19 27.8954H97.9179L96.2998 23.332H97.4229L98.5743 26.9328Z" fill="#DA3369"/>
<path d="M104.344 24.8317C104.344 24.3469 103.981 24.0942 103.393 24.0942C102.899 24.0942 102.453 24.3054 102.111 24.5789L101.638 23.8311C102.021 23.4988 102.668 23.2148 103.466 23.2148C104.669 23.2148 105.354 23.883 105.354 24.8524V27.8993H104.344V27.4215C104.082 27.8474 103.515 28.017 103.041 28.017C102.001 28.017 101.396 27.4215 101.396 26.5802C101.396 25.6903 102.021 25.1849 103.041 25.1849H104.02C104.251 25.1849 104.344 25.0844 104.344 24.901V24.8317ZM104.344 26.227V25.8323C104.255 25.9015 104.092 25.9327 103.86 25.9327H103.255C102.719 25.9327 102.447 26.1647 102.447 26.549C102.447 26.9021 102.709 27.2276 103.255 27.2276C103.819 27.2276 104.344 26.9333 104.344 26.227Z" fill="#DA3369"/>
<path d="M109.374 24.5685C109.031 24.2362 108.526 24.0734 108.18 24.0734C107.787 24.0734 107.586 24.2846 107.586 24.4993C107.586 24.7521 107.697 24.8732 108.011 24.984L108.8 25.2576C109.647 25.5518 110.003 26.0158 110.003 26.5836C110.003 27.3107 109.446 28.0204 108.306 28.0204C107.559 28.0204 106.822 27.7158 106.387 27.3038L106.981 26.5248C107.323 26.8676 107.859 27.1203 108.284 27.1203C108.689 27.1203 108.951 26.9472 108.951 26.6737C108.951 26.3794 108.81 26.2581 108.306 26.0885L107.548 25.8254C106.912 25.6038 106.56 25.126 106.56 24.5616C106.56 23.8934 107.134 23.2148 108.226 23.2148C108.761 23.2148 109.477 23.426 109.955 23.8726L109.374 24.5685Z" fill="#DA3369"/>
<path d="M55.4878 38.2199H54.1327L53.3755 37.3889C52.9399 37.9948 52.3038 38.341 51.4257 38.341C50.1742 38.341 49.3652 37.4512 49.3652 36.4091C49.3652 35.5885 49.8112 34.9134 50.5891 34.2832C50.1154 33.6981 49.9737 33.2826 49.9737 32.7875C49.9737 31.6241 50.9244 31.0391 51.8613 31.0391C52.7498 31.0391 53.6279 31.5653 53.6279 32.6178C53.6279 32.881 53.5656 33.196 53.3755 33.4869L52.4974 33.3241C52.5976 33.0922 52.6599 32.888 52.6599 32.7287C52.6599 32.2544 52.3073 31.9288 51.8613 31.9288C51.2943 31.9288 50.9935 32.3236 50.9935 32.7806C50.9935 33.1441 51.1664 33.5077 51.5985 34.0063C52.2139 34.7022 53.1647 35.727 53.2753 35.8482C53.5587 35.3531 53.7903 34.7957 53.9217 34.4217H55.0626C54.7583 35.2319 54.3435 35.9798 53.9805 36.5752L55.4844 38.1852V38.2199H55.4878ZM51.156 34.993C50.6305 35.54 50.43 35.9036 50.43 36.3987C50.43 37.0358 50.9555 37.42 51.4913 37.42C51.9477 37.42 52.442 37.1777 52.7048 36.693L51.156 34.993Z" fill="#DA3369"/>
<path d="M60.1269 31.8359V33.6779H61.1986V34.5088H60.1269V37.0675C60.1269 37.3826 60.3585 37.4415 60.5902 37.4415C60.9428 37.4415 61.2055 37.3998 61.2055 37.3998V38.2412C61.2055 38.2412 60.7112 38.2932 60.3378 38.2932C59.7915 38.2932 59.1139 38.1823 59.1139 37.2926V34.5123H58.3672V33.6814H59.1174V31.8394H60.1269V31.8359Z" fill="#DA3369"/>
<path d="M66.6851 36.2677H63.1C63.1795 36.967 63.667 37.483 64.3826 37.483C64.8182 37.483 65.2227 37.3098 65.4543 36.9566L66.5952 36.9878C66.1907 37.888 65.354 38.3623 64.3826 38.3623C63.0274 38.3623 62.0283 37.3513 62.0283 35.956C62.0283 34.5607 63.0101 33.5566 64.3515 33.5566C65.5753 33.5566 66.6851 34.3773 66.6851 36.2573V36.2677ZM63.0966 35.5302H65.5512C65.4993 34.9451 65.0256 34.4361 64.3584 34.4361C63.6843 34.4361 63.2176 34.8827 63.0966 35.5302Z" fill="#DA3369"/>
<path d="M69.8965 37.4844C70.422 37.4844 70.8264 37.2317 71.058 36.8162L71.9258 37.2629C71.5628 37.9414 70.7642 38.3638 69.8965 38.3638C68.5413 38.3638 67.4834 37.3632 67.4834 35.9645C67.4834 34.5588 68.5447 33.5547 69.8965 33.5547C70.7642 33.5547 71.5628 33.9806 71.9258 34.6591L71.058 35.1058C70.8264 34.6903 70.422 34.4376 69.8965 34.4376C69.0668 34.4376 68.5032 35.0954 68.5032 35.9645C68.5032 36.8335 69.0702 37.4844 69.8965 37.4844Z" fill="#DA3369"/>
<path d="M74.0111 33.941C74.0111 34.0726 74.011 34.1522 74.0007 34.2456C74.3844 33.799 74.9099 33.5566 75.4873 33.5566C76.559 33.5566 77.1847 34.2249 77.1847 35.267V38.2412H76.1753V35.409C76.1753 34.7615 75.7812 34.4568 75.2764 34.4568C74.8408 34.4568 74.419 34.6784 74.0353 35.1251V38.2412H73.0361V33.6778H74.0145V33.941H74.0111Z" fill="#DA3369"/>
<path d="M80.7174 33.5566C82.0622 33.5566 83.1512 34.5573 83.1512 35.956C83.1512 37.3513 82.0588 38.3623 80.7174 38.3623C79.3726 38.3623 78.2939 37.3513 78.2939 35.956C78.2939 34.5573 79.376 33.5566 80.7174 33.5566ZM80.7174 34.4361C79.8877 34.4361 79.3138 35.0836 79.3138 35.9526C79.3138 36.8216 79.8912 37.4795 80.7174 37.4795C81.5471 37.4795 82.1211 36.8216 82.1211 35.9526C82.1245 35.0836 81.5471 34.4361 80.7174 34.4361Z" fill="#DA3369"/>
<path d="M85.3463 31.1582H84.3477V38.2387H85.3463V31.1582Z" fill="#DA3369"/>
<path d="M88.9629 33.5566C90.3077 33.5566 91.3962 34.5573 91.3962 35.956C91.3962 37.3513 90.3042 38.3623 88.9629 38.3623C87.6177 38.3623 86.5391 37.3513 86.5391 35.956C86.5391 34.5573 87.6211 33.5566 88.9629 33.5566ZM88.9629 34.4361C88.1328 34.4361 87.559 35.0836 87.559 35.9526C87.559 36.8216 88.1363 37.4795 88.9629 37.4795C89.7923 37.4795 90.3663 36.8216 90.3663 35.9526C90.3698 35.0836 89.7923 34.4361 88.9629 34.4361Z" fill="#DA3369"/>
<path d="M97.0774 33.6793V38.6062C97.0774 39.3159 96.7243 40.0015 95.6421 40.0015H93.7339V39.1706H95.4904C95.7636 39.1706 96.0679 39.0979 96.0679 38.6858V37.5606C95.8257 38.0072 95.2101 38.3396 94.543 38.3396C93.2292 38.3396 92.2578 37.3494 92.2578 35.9541C92.2578 34.5484 93.2088 33.5547 94.5323 33.5547C95.1994 33.5547 95.8257 33.8974 96.0777 34.3545C96.0777 34.2541 96.0679 34.1433 96.0679 34.0014V33.6758H97.0774V33.6793ZM94.6956 37.4844C95.5321 37.4844 96.1087 36.8266 96.1087 35.9575C96.1087 35.0782 95.5321 34.4203 94.6956 34.4203C93.8652 34.4203 93.2913 35.0782 93.2913 35.9575C93.2877 36.8266 93.8652 37.4844 94.6956 37.4844Z" fill="#DA3369"/>
<path d="M99.7663 38.2415H98.7568V34.5056H98.0693V33.6747H99.7663V38.2415ZM99.1995 31.3203C99.5934 31.3203 99.9154 31.6457 99.9154 32.0405C99.9154 32.4352 99.5934 32.7468 99.1995 32.7468C98.8056 32.7468 98.4907 32.4352 98.4907 32.0405C98.4943 31.6457 98.8056 31.3203 99.1995 31.3203Z" fill="#DA3369"/>
<path d="M103.83 35.1735C103.83 34.6888 103.467 34.4361 102.879 34.4361C102.384 34.4361 101.938 34.6473 101.596 34.9208L101.123 34.1729C101.506 33.8406 102.153 33.5566 102.951 33.5566C104.154 33.5566 104.839 34.2249 104.839 35.1943V38.2412H103.83V37.7669C103.567 38.1926 103 38.3623 102.526 38.3623C101.486 38.3623 100.881 37.7669 100.881 36.9254C100.881 36.0357 101.506 35.5302 102.526 35.5302H103.505C103.736 35.5302 103.83 35.4298 103.83 35.2462V35.1735ZM103.83 36.5723V36.1776C103.74 36.2469 103.578 36.2781 103.345 36.2781H102.74C102.204 36.2781 101.931 36.51 101.931 36.8943C101.931 37.2475 102.195 37.5729 102.74 37.5729C103.304 37.5729 103.83 37.2786 103.83 36.5723Z" fill="#DA3369"/>
</g>
<defs>
<clipPath id="clip0_20_4504">
<rect width="110" height="40" fill="white"/>
</clipPath>
</defs>
</svg>
