<svg width="36" height="40" viewBox="0 0 36 40" fill="none" xmlns="http://www.w3.org/2000/svg">
<path fill-rule="evenodd" clip-rule="evenodd" d="M15.6674 0.0515406C12.8007 0.323244 10.4535 0.960042 8.17887 2.08314C6.51417 2.90499 5.49133 3.63535 4.19344 4.92856C1.64995 7.46288 0.417422 10.3365 0.0778864 14.5241C-0.16971 17.5783 0.179003 21.0183 1.03858 24.001C2.41923 28.7921 5.48336 33.4709 9.17713 36.4285C11.556 38.3333 13.6159 39.3968 15.7972 39.8467C16.7821 40.0497 19.1752 40.0514 20.1849 39.8498C22.9812 39.2913 25.7133 37.6466 28.5256 34.8288C30.593 32.7573 32.0442 30.7618 33.274 28.2992C34.9896 24.8638 35.8518 21.412 35.9824 17.457C36.1321 12.9243 35.3293 9.61007 33.3876 6.7453C32.6086 5.59594 30.9336 3.96097 29.692 3.13816C27.3759 1.60306 24.6003 0.604538 21.4677 0.179401C20.2781 0.0179339 16.8251 -0.0581777 15.6674 0.0515406ZM29.1953 18.5315C29.8338 18.7765 30.4904 19.406 30.791 20.0611C31.0641 20.6564 31.158 21.8585 30.9975 22.7032C30.8592 23.4314 30.0807 25.0077 29.4412 25.8546C27.4331 28.514 24.2979 29.9402 22.117 29.1861C21.5011 28.9733 20.6859 28.1423 20.4294 27.466C19.7177 25.5892 20.5369 23.1426 22.59 21.0122C23.4586 20.111 24.2102 19.5281 25.1037 19.0629C25.705 18.7498 26.5787 18.4291 27.0949 18.3322C27.5949 18.2382 28.706 18.3436 29.1953 18.5315ZM10.0195 18.7781C11.2979 19.2532 12.4564 20.0653 13.6023 21.2896C15.1425 22.9355 15.9131 24.6837 15.8196 26.3198C15.7446 27.6333 15.19 28.4875 14.0459 29.0518C13.4197 29.3607 13.3437 29.3772 12.5572 29.3746C10.7717 29.3687 8.88781 28.412 7.2812 26.6952C6.16745 25.5051 5.21326 23.8023 5.01319 22.648C4.76325 21.2055 5.2336 19.7324 6.17247 19.0178C6.75207 18.5766 7.29514 18.4425 8.35201 18.4793C9.15125 18.5071 9.41919 18.5551 10.0195 18.7781Z" fill="#57ACBC"/>
</svg>
