<svg width="17" height="21" viewBox="0 0 17 21" fill="none" xmlns="http://www.w3.org/2000/svg">
<path fill-rule="evenodd" clip-rule="evenodd" d="M4.22413 2.55192C4.07338 2.62247 3.94907 2.76519 3.90726 2.9157C3.88998 2.97792 3.87577 3.16777 3.87568 3.33754L3.8755 3.64619L3.27462 3.65976C2.60206 3.67491 2.42672 3.71197 2.05004 3.91846C1.74665 4.08479 1.38898 4.46202 1.233 4.78023C0.979835 5.29668 1.0004 4.75872 1.0004 10.8631C1.0004 16.9564 0.980778 16.4314 1.22722 16.9343C1.45382 17.3968 1.89314 17.779 2.41154 17.9646L2.67374 18.0585H8.5H14.3263L14.5696 17.9728C15.2532 17.7322 15.7578 17.1892 15.9462 16.4916C15.9962 16.3065 15.9996 15.9459 15.9996 10.8631C15.9996 4.75698 16.0203 5.29705 15.7661 4.77825C15.5873 4.41355 15.225 4.05233 14.8587 3.87358C14.5019 3.69949 14.2405 3.65255 13.6278 3.65255H13.1245L13.1243 3.3407C13.1241 2.97028 13.0915 2.83453 12.9693 2.69534C12.7055 2.3949 12.2023 2.4583 12.0303 2.81366C11.9788 2.91993 11.9684 3.00171 11.9684 3.29707V3.65255H8.5024H5.03646L5.02642 3.26227C5.01735 2.90874 5.00951 2.86194 4.94309 2.76513C4.77673 2.52265 4.47672 2.43369 4.22413 2.55192ZM3.88092 5.16616C3.89467 5.58212 3.94103 5.71076 4.12519 5.84417C4.34668 6.00462 4.62856 5.98886 4.8388 5.80428C5.00196 5.66101 5.03162 5.5618 5.03162 5.15953V4.80867H8.5H11.9684V5.15953C11.9684 5.5618 11.998 5.66101 12.1612 5.80428C12.3757 5.99261 12.6707 6.00204 12.8991 5.82783C13.0604 5.70482 13.1058 5.56819 13.1191 5.16616L13.1309 4.80867H13.6134C14.0247 4.80867 14.1203 4.81783 14.262 4.87086C14.4713 4.94917 14.6583 5.12865 14.7628 5.3516L14.8435 5.52365L14.8534 6.45919L14.8633 7.39474H8.5H2.13666L2.14706 6.45919C2.1561 5.64233 2.16431 5.50822 2.21162 5.40195C2.29797 5.20809 2.41057 5.06317 2.54298 4.97555C2.76094 4.83131 2.85321 4.81312 3.37791 4.8108L3.86908 4.80867L3.88092 5.16616ZM14.8517 12.3767L14.8435 16.2026L14.764 16.3699C14.6687 16.5704 14.5046 16.7395 14.3141 16.8334L14.1741 16.9023H8.5H2.82586L2.68509 16.833C2.49046 16.7371 2.32991 16.5723 2.23596 16.372L2.15653 16.2026L2.14825 12.3767L2.13994 8.55087H8.5H14.8601L14.8517 12.3767Z" fill="#AEAEAE" stroke="#AEAEAE" stroke-width="0.2"/>
</svg>
