<svg width="17" height="21" viewBox="0 0 17 21" fill="none" xmlns="http://www.w3.org/2000/svg">
<path fill-rule="evenodd" clip-rule="evenodd" d="M7.77824 2.51893C6.23305 2.6703 4.80492 3.23988 3.55276 4.20416C2.94299 4.67374 2.15111 5.55623 1.6935 6.27612C1.49586 6.58703 1.11115 7.37487 0.97333 7.75085C0.819236 8.17128 0.655001 8.81376 0.574183 9.31229C0.475272 9.92247 0.475272 11.081 0.574183 11.6911C0.714035 12.5537 0.935268 13.2511 1.31394 14.0231C1.72768 14.8665 2.15788 15.4643 2.84677 16.1532C3.5357 16.8421 4.13355 17.2723 4.97695 17.6861C5.74895 18.0647 6.44627 18.286 7.30885 18.4258C7.91903 18.5247 9.07753 18.5247 9.68771 18.4258C10.5503 18.286 11.2476 18.0647 12.0196 17.6861C12.863 17.2723 13.4609 16.8421 14.1498 16.1532C14.8387 15.4643 15.2689 14.8665 15.6826 14.0231C15.9574 13.4628 16.0956 13.0957 16.2437 12.5327C16.4408 11.7829 16.4909 11.3719 16.4909 10.5017C16.4909 9.63156 16.4408 9.22055 16.2437 8.47077C16.0956 7.90776 15.9574 7.54061 15.6826 6.98038C15.2689 6.13699 14.8387 5.53914 14.1498 4.85021C13.4609 4.16131 12.863 3.73112 12.0196 3.31738C11.2484 2.93905 10.5372 2.71334 9.70336 2.58216C9.24327 2.50979 8.21592 2.47605 7.77824 2.51893ZM9.24289 3.77425C10.7692 3.94237 12.1664 4.61902 13.2737 5.72632C14.5728 7.02549 15.2592 8.67629 15.2592 10.5017C15.2592 12.3271 14.5728 13.978 13.2737 15.2771C11.9745 16.5763 10.3237 17.2627 8.49828 17.2627C6.67285 17.2627 5.02205 16.5763 3.72288 15.2771C2.42371 13.978 1.73732 12.3271 1.73732 10.5017C1.73732 8.67629 2.42371 7.02549 3.72288 5.72632C4.815 4.63421 6.22679 3.94443 7.71576 3.7755C8.06026 3.73644 8.89336 3.73575 9.24289 3.77425ZM8.22859 6.27339C8.07826 6.34166 7.95581 6.49068 7.90488 6.66738C7.8789 6.75759 7.87148 7.33934 7.87837 8.74888C7.88767 10.6543 7.88961 10.7084 7.95252 10.8304C8.00486 10.9318 8.25445 11.1356 9.26715 11.9038C9.95467 12.4253 10.58 12.8897 10.6568 12.9357C11.1802 13.2495 11.7988 12.6911 11.5339 12.1439C11.4705 12.0129 11.3446 11.909 10.2938 11.1208L9.1243 10.2436V8.49925C9.1243 7.27849 9.11359 6.72303 9.08868 6.64857C8.99991 6.38348 8.77041 6.21489 8.49828 6.21489C8.42081 6.21489 8.29946 6.24122 8.22859 6.27339Z" fill="#AEAEAE" stroke="#AEAEAE" stroke-width="0.2"/>
</svg>
