<svg width="22" height="24" viewBox="0 0 22 24" fill="none" xmlns="http://www.w3.org/2000/svg">
<path fill-rule="evenodd" clip-rule="evenodd" d="M8.93983 2.02384C8.8763 2.03317 8.66836 2.0632 8.47776 2.09055C7.66372 2.20745 6.69465 2.51585 5.91661 2.90566C3.35426 4.1894 1.63691 6.49181 1.0997 9.36361C1.00392 9.87545 0.967181 11.2486 1.03404 11.8163C1.39908 14.9162 3.27922 17.5516 6.06521 18.8683C8.97393 20.2431 12.4682 19.9188 15.034 18.036L15.3754 17.7855L17.4832 19.8927L19.591 22L20.2955 21.2956L21 20.5912L18.8903 18.4814L16.7807 16.3717L16.9206 16.1942C17.2146 15.8213 17.5987 15.1836 17.8562 14.6408C18.6944 12.8736 18.9236 10.9714 18.5292 9.05466C17.8924 5.95955 15.6423 3.42969 12.6479 2.44216C11.6134 2.10095 10.8958 1.99076 9.77277 2.0006C9.3782 2.00406 9.00337 2.01455 8.93983 2.02384ZM11.0192 4.05545C11.615 4.15225 12.463 4.44027 13.041 4.74207C14.9305 5.72877 16.2416 7.51362 16.6394 9.64083C16.7555 10.2617 16.7552 11.4957 16.6388 12.0879C16.0836 14.9124 14.0145 17.0119 11.1877 17.6193C10.5644 17.7532 9.26966 17.7653 8.63948 17.6431C7.24623 17.373 5.98343 16.7182 5.01875 15.7656C2.32554 13.1061 2.25762 8.81445 4.86576 6.09747C5.81953 5.10393 6.93618 4.46093 8.26312 4.14116C9.14573 3.92849 10.0625 3.89998 11.0192 4.05545Z" fill="#1B1F21"/>
</svg>
